<svg width="268.000000" height="152.000000" viewBox="0 0 268 152" fill="none" xmlns="http://www.w3.org/2000/svg" xmlns:xlink="http://www.w3.org/1999/xlink">
	<desc>
			Created with Pixso.
	</desc>
	<defs>
		<filter id="filter_67_1357_dd" x="-190.709961" y="-132.709961" width="649.419922" height="508.219727" filterUnits="userSpaceOnUse" color-interpolation-filters="sRGB">
			<feFlood flood-opacity="0" result="BackgroundImageFix"/>
			<feBlend mode="normal" in="SourceGraphic" in2="BackgroundImageFix" result="shape"/>
			<feGaussianBlur stdDeviation="18.9033" result="effect_layerBlur_1"/>
		</filter>
		<clipPath id="clip67_1355">
			<rect id="magicpattern-mesh-gradient-1697383551306 1" rx="4.000000" width="268.000000" height="152.000000" fill="white" fill-opacity="0"/>
		</clipPath>
	</defs>
	<rect id="magicpattern-mesh-gradient-1697383551306 1" rx="4.000000" width="268.000000" height="152.000000" fill="#FFFFFF" fill-opacity="0"/>
	<g clip-path="url(#clip67_1355)">
		<g filter="url(#filter_67_1357_dd)">
			<path id="Vector" d="M-134 -76L402 -76L402 228L-134 228L-134 -76Z" fill="#E9D5FF" fill-opacity="1.000000" fill-rule="nonzero"/>
			<path id="Vector" d="M-6.07 -16L-60.68 104L125.4 191.8L149.67 154L-6.07 -16Z" fill="#FFFFFF" fill-opacity="1.000000" fill-rule="nonzero"/>
			<path id="Vector" d="M70.79 -45L54.61 83L64.72 163.8L269.01 12L70.79 -45Z" fill="#D9F99D" fill-opacity="1.000000" fill-rule="nonzero"/>
			<path id="Vector" d="M306.43 39L144.61 195L215.41 229.8L328.68 228L306.43 39Z" fill="#E9D5FF" fill-opacity="1.000000" fill-rule="nonzero"/>
			<path id="Vector" d="M47.53 46L-67.76 158L11.12 219.8L110.23 75L47.53 46Z" fill="#D9F99D" fill-opacity="1.000000" fill-rule="nonzero"/>
			<path id="Vector" d="M44.49 141L40.45 205L220.46 318.79L221.47 285L44.49 141Z" fill="#E9D5FF" fill-opacity="1.000000" fill-rule="nonzero"/>
			<path id="Vector" d="M209.34 105L141.58 115L197.2 308.79L340.81 119L209.34 105Z" fill="#E9D5FF" fill-opacity="1.000000" fill-rule="nonzero"/>
		</g>
	</g>
</svg>
