<svg width="268.000000" height="152.000000" viewBox="0 0 268 152" fill="none" xmlns="http://www.w3.org/2000/svg" xmlns:xlink="http://www.w3.org/1999/xlink">
	<desc>
			Created with Pixso.
	</desc>
	<defs>
		<filter id="filter_67_1327_dd" x="-190.709961" y="-132.709961" width="649.419922" height="533.219727" filterUnits="userSpaceOnUse" color-interpolation-filters="sRGB">
			<feFlood flood-opacity="0" result="BackgroundImageFix"/>
			<feBlend mode="normal" in="SourceGraphic" in2="BackgroundImageFix" result="shape"/>
			<feGaussianBlur stdDeviation="18.9033" result="effect_layerBlur_1"/>
		</filter>
		<clipPath id="clip67_1325">
			<rect id="magicpattern-mesh-gradient-1697383563628 1" rx="4.000000" width="268.000000" height="152.000000" fill="white" fill-opacity="0"/>
		</clipPath>
	</defs>
	<rect id="magicpattern-mesh-gradient-1697383563628 1" rx="4.000000" width="268.000000" height="152.000000" fill="#FFFFFF" fill-opacity="0"/>
	<g clip-path="url(#clip67_1325)">
		<g filter="url(#filter_67_1327_dd)">
			<path id="Vector" d="M-134 -76L402 -76L402 228L-134 228L-134 -76Z" fill="#E9D5FF" fill-opacity="1.000000" fill-rule="nonzero"/>
			<path id="Vector" d="M86.97 -36L-58.66 51L-43.49 143.8L118.32 -13L86.97 -36Z" fill="#FFFFFF" fill-opacity="1.000000" fill-rule="nonzero"/>
			<path id="Vector" d="M168.89 -44L29.32 76L116.3 116.8L209.34 22L168.89 -44Z" fill="#D9F99D" fill-opacity="1.000000" fill-rule="nonzero"/>
			<path id="Vector" d="M226.53 54L138.55 247L239.68 267.79L351.94 215L226.53 54ZM-9.11 60L-51.58 67L65.73 219.8L112.25 134L-9.11 60Z" fill="#FFFFFF" fill-opacity="1.000000" fill-rule="nonzero"/>
			<path id="Vector" d="M132.48 141L21.23 192L158.77 343.8L223.5 192L132.48 141Z" fill="#FFFFFF" fill-opacity="1.000000" fill-rule="nonzero"/>
			<path id="Vector" d="M202.26 108L106.18 112L127.42 271.79L293.28 127L202.26 108Z" fill="#E9D5FF" fill-opacity="1.000000" fill-rule="nonzero"/>
		</g>
	</g>
</svg>
