<svg width="268.000000" height="152.000000" viewBox="0 0 268 152" fill="none" xmlns="http://www.w3.org/2000/svg" xmlns:xlink="http://www.w3.org/1999/xlink">
	<desc>
			Created with Pixso.
	</desc>
	<defs>
		<filter id="filter_67_1347_dd" x="-190.709961" y="-240.509766" width="649.419922" height="525.219727" filterUnits="userSpaceOnUse" color-interpolation-filters="sRGB">
			<feFlood flood-opacity="0" result="BackgroundImageFix"/>
			<feBlend mode="normal" in="SourceGraphic" in2="BackgroundImageFix" result="shape"/>
			<feGaussianBlur stdDeviation="18.9033" result="effect_layerBlur_1"/>
		</filter>
		<clipPath id="clip67_1345">
			<rect id="magicpattern-mesh-gradient-1697383558666 1" rx="4.000000" width="268.000000" height="151.999969" transform="translate(268.000000 152.000000) rotate(-179.999985)" fill="white" fill-opacity="0"/>
		</clipPath>
	</defs>
	<rect id="magicpattern-mesh-gradient-1697383558666 1" rx="4.000000" width="268.000000" height="151.999969" transform="translate(268.000000 152.000000) rotate(-179.999985)" fill="#FFFFFF" fill-opacity="0"/>
	<g clip-path="url(#clip67_1345)">
		<g filter="url(#filter_67_1347_dd)">
			<path id="Vector" d="M402 228L-134 228L-134 -76L402 -76L402 228Z" fill="#E9D5FF" fill-opacity="1.000000" fill-rule="nonzero"/>
			<path id="Vector" d="M307.44 183L322.61 31L149.67 13.2L129.44 152L307.44 183Z" fill="#D9F99D" fill-opacity="1.000000" fill-rule="nonzero"/>
			<path id="Vector" d="M91.01 166L233.61 1L220.46 -33.8L49.55 113L91.01 166Z" fill="#E9D5FF" fill-opacity="1.000000" fill-rule="nonzero"/>
			<path id="Vector" d="M126.41 100L151.69 -69L91.01 -86.8L-35.4 3L126.41 100Z" fill="#E9D5FF" fill-opacity="1.000000" fill-rule="nonzero"/>
			<path id="Vector" d="M196.19 87L311.48 28L305.41 -70.8L151.69 75L196.19 87ZM109.22 32L215.41 -82L131.47 -145.8L16.18 -91L109.22 32Z" fill="#FFFFFF" fill-opacity="1.000000" fill-rule="nonzero"/>
			<path id="Vector" d="M-50.57 32L131.47 -142L-33.38 -183.8L-67.76 -129L-50.57 32Z" fill="#E9D5FF" fill-opacity="1.000000" fill-rule="nonzero"/>
		</g>
	</g>
</svg>
