<svg width="18.000000" height="18.000000" viewBox="0 0 18 18" fill="none" xmlns="http://www.w3.org/2000/svg" xmlns:xlink="http://www.w3.org/1999/xlink">
	<desc>
			Created with Pixso.
	</desc>
	<defs>
		<clipPath id="clip47_3398">
			<rect id="heroicons-solid/arrow-left-on-rectangle" width="18.000000" height="18.000000" fill="white" fill-opacity="0"/>
		</clipPath>
	</defs>
	<g clip-path="url(#clip47_3398)">
		<path id="Vector (Stroke)" d="M5.62 2.81C5 2.81 4.5 3.31 4.5 3.93L4.5 14.06C4.5 14.68 5 15.18 5.62 15.18L10.12 15.18C10.74 15.18 11.25 14.68 11.25 14.06L11.25 11.25C11.25 10.93 11.5 10.68 11.81 10.68C12.12 10.68 12.37 10.93 12.37 11.25L12.37 14.06C12.37 15.3 11.36 16.31 10.12 16.31L5.62 16.31C4.38 16.31 3.37 15.3 3.37 14.06L3.37 3.93C3.37 2.69 4.38 1.68 5.62 1.68L10.12 1.68C11.36 1.68 12.37 2.69 12.37 3.93L12.37 6.75C12.37 7.06 12.12 7.31 11.81 7.31C11.5 7.31 11.25 7.06 11.25 6.75L11.25 3.93C11.25 3.31 10.74 2.81 10.12 2.81L5.62 2.81ZM9.39 6.35C9.61 6.57 9.61 6.92 9.39 7.14L8.1 8.43L16.31 8.43C16.62 8.43 16.87 8.68 16.87 9C16.87 9.31 16.62 9.56 16.31 9.56L8.1 9.56L9.39 10.85C9.61 11.07 9.61 11.42 9.39 11.64C9.17 11.86 8.82 11.86 8.6 11.64L6.35 9.39C6.13 9.17 6.13 8.82 6.35 8.6L8.6 6.35C8.82 6.13 9.17 6.13 9.39 6.35Z" fill="#F1F5F9" fill-opacity="1.000000" fill-rule="evenodd"/>
	</g>
</svg>
