<svg width="18.000000" height="18.000000" viewBox="0 0 18 18" fill="none" xmlns="http://www.w3.org/2000/svg" xmlns:xlink="http://www.w3.org/1999/xlink">
	<desc>
			Created with Pixso.
	</desc>
	<defs>
		<clipPath id="clip15_5875">
			<rect id="heroicons-solid/briefcase" width="18.000000" height="18.000000" fill="white" fill-opacity="0"/>
		</clipPath>
	</defs>
	<g clip-path="url(#clip15_5875)">
		<path id="Subtract" d="M7.87 1.68C6.63 1.68 5.62 2.69 5.62 3.93L5.62 4.09C4.92 4.15 4.23 4.23 3.54 4.34C2.45 4.5 1.68 5.45 1.68 6.52L1.68 8.8C1.68 9.71 2.23 10.56 3.13 10.86C4.98 11.48 6.95 11.81 9 11.81C11.04 11.81 13.01 11.48 14.86 10.86C15.76 10.56 16.31 9.71 16.31 8.8L16.31 6.52C16.31 5.45 15.54 4.5 14.45 4.34C13.76 4.23 13.07 4.15 12.37 4.09L12.37 3.93C12.37 2.69 11.36 1.68 10.12 1.68L7.87 1.68ZM11.25 4L11.25 3.93C11.25 3.31 10.74 2.81 10.12 2.81L7.87 2.81C7.25 2.81 6.75 3.31 6.75 3.93L6.75 4C7.49 3.96 8.24 3.93 9 3.93C9.75 3.93 10.5 3.96 11.25 4ZM9.56 9.56C9.56 9.87 9.31 10.12 9 10.12C8.68 10.12 8.43 9.87 8.43 9.56C8.43 9.25 8.68 9 9 9C9.31 9 9.56 9.25 9.56 9.56ZM2.25 11.7L2.25 13.79C2.25 14.88 3.03 15.84 4.14 15.99C5.73 16.2 7.35 16.31 9 16.31C10.64 16.31 12.26 16.2 13.85 15.99C14.96 15.84 15.75 14.88 15.75 13.79L15.75 11.7C15.58 11.79 15.4 11.87 15.21 11.93C13.25 12.58 11.16 12.93 9 12.93C6.83 12.93 4.74 12.58 2.78 11.93C2.59 11.87 2.41 11.79 2.25 11.7Z" fill="#FAFAFA" fill-opacity="1.000000" fill-rule="evenodd"/>
	</g>
</svg>
