<svg width="16.000000" height="16.000000" viewBox="0 0 16 16" fill="none" xmlns="http://www.w3.org/2000/svg" xmlns:xlink="http://www.w3.org/1999/xlink">
	<desc>
			Created with Pixso.
	</desc>
	<defs>
		<clipPath id="clip30_3061">
			<rect id="heroicons-solid/check" width="16.000000" height="16.000000" fill="white" fill-opacity="0"/>
		</clipPath>
	</defs>
	<g clip-path="url(#clip30_3061)">
		<path id="Vector 616 (Stroke)" d="M13.27 3.08C13.5 3.23 13.56 3.54 13.41 3.77L7.41 12.77C7.33 12.9 7.19 12.98 7.04 12.99C6.9 13.01 6.75 12.95 6.64 12.85L2.64 8.85C2.45 8.65 2.45 8.34 2.64 8.14C2.84 7.95 3.15 7.95 3.35 8.14L6.92 11.71L12.58 3.22C12.73 2.99 13.04 2.93 13.27 3.08Z" fill="#15803D" fill-opacity="1.000000" fill-rule="evenodd"/>
		<path id="Vector 616 (Stroke)" d="M6.56 11.35L3.35 8.14C3.15 7.95 2.84 7.95 2.64 8.14C2.45 8.34 2.45 8.65 2.64 8.85L6.64 12.85C6.75 12.95 6.9 13.01 7.04 12.99C7.19 12.98 7.33 12.9 7.41 12.77L13.41 3.77C13.56 3.54 13.5 3.23 13.27 3.08C13.04 2.93 12.73 2.99 12.58 3.22L7.2 11.29L6.92 11.71L6.56 11.35Z" fill="#15803D" fill-opacity="1.000000" fill-rule="evenodd"/>
	</g>
</svg>
