<svg width="122.000000" height="25.000000" viewBox="0 0 122 25" fill="none" xmlns="http://www.w3.org/2000/svg" xmlns:xlink="http://www.w3.org/1999/xlink">
	<desc>
			Created with Pixso.
	</desc>
	<defs>
		<linearGradient id="paint_linear_81_7780_0" x1="14.500003" y1="5.000004" x2="21.000008" y2="16.000002" gradientUnits="userSpaceOnUse">
			<stop stop-color="#E9D5FF"/>
			<stop offset="1.000000" stop-color="#D9F99D"/>
		</linearGradient>
	</defs>
	<path id="Vector" d="M23.81 8.01L15.74 8.01L15.74 0L8.01 0C8.01 4.42 4.42 8.01 0 8.01L0 15.74L8.01 15.74L8.01 23.76L15.74 23.76C15.74 19.33 19.38 15.74 23.81 15.74L23.81 8.01Z" fill="url(#paint_linear_81_7780_0)" fill-opacity="1.000000" fill-rule="nonzero"/>
	<path id="TruScape" d="M67.91 20.63C67 20.63 66.16 20.46 65.37 20.13C64.61 19.79 63.94 19.33 63.38 18.74C62.83 18.14 62.42 17.44 62.17 16.65L64.34 15.71C64.68 16.53 65.18 17.18 65.84 17.65C66.49 18.11 67.22 18.34 68.04 18.34C68.5 18.34 68.9 18.27 69.23 18.13C69.58 17.98 69.84 17.77 70.02 17.52C70.21 17.26 70.31 16.95 70.31 16.59C70.31 16.17 70.18 15.83 69.92 15.56C69.68 15.28 69.31 15.06 68.81 14.9L66.07 14.02C64.95 13.68 64.11 13.16 63.55 12.47Q63.22 12.05 63.01 11.59Q62.71 10.87 62.71 10.03C62.71 9.21 62.9 8.48 63.3 7.86C63.71 7.23 64.27 6.74 64.99 6.4C65.72 6.04 66.55 5.86 67.49 5.86Q68.77 5.86 69.85 6.32C70.56 6.62 71.18 7.03 71.69 7.57Q71.98 7.86 72.22 8.19L72.22 8.19Q72.62 8.75 72.86 9.43L70.71 10.39C70.43 9.68 70.01 9.12 69.44 8.74Q69.19 8.56 68.92 8.44L68.92 8.44Q68.27 8.15 67.49 8.15C67.05 8.15 66.67 8.22 66.33 8.38C66 8.52 65.74 8.72 65.55 8.99Q65.51 9.04 65.48 9.1Q65.28 9.45 65.28 9.91C65.28 10.31 65.41 10.66 65.66 10.97C65.92 11.26 66.31 11.49 66.83 11.66L69.46 12.48C70.6 12.86 71.45 13.37 72.02 14.02C72.59 14.67 72.88 15.48 72.88 16.44Q72.88 17.34 72.54 18.08Q72.42 18.36 72.25 18.61C71.83 19.24 71.24 19.73 70.5 20.09C69.76 20.45 68.89 20.63 67.91 20.63ZM37.51 20.39L37.51 8.39L33.81 8.39L33.81 6.09L43.79 6.09L43.79 8.39L40.14 8.39L40.14 20.39L37.51 20.39ZM80.05 20.63C79.02 20.63 78.08 20.39 77.25 19.91C76.43 19.43 75.78 18.78 75.31 17.96C74.84 17.12 74.6 16.19 74.6 15.15C74.6 14.12 74.84 13.19 75.31 12.37C75.78 11.55 76.43 10.9 77.25 10.43C78.08 9.96 79.02 9.72 80.05 9.72C80.79 9.72 81.49 9.85 82.13 10.12C82.77 10.38 83.32 10.74 83.78 11.2Q84.1 11.5 84.34 11.86Q84.63 12.29 84.79 12.81L82.59 13.77C82.39 13.25 82.07 12.82 81.61 12.5C81.16 12.18 80.64 12.02 80.05 12.02C79.5 12.02 79.01 12.16 78.57 12.43C78.15 12.7 77.82 13.07 77.58 13.54Q77.21 14.25 77.21 15.17C77.21 15.79 77.33 16.33 77.58 16.8C77.82 17.28 78.15 17.65 78.57 17.92C79.01 18.19 79.5 18.32 80.05 18.32C80.65 18.32 81.18 18.16 81.63 17.84C82.07 17.52 82.39 17.09 82.59 16.56L84.79 17.55C84.59 18.14 84.26 18.67 83.8 19.15C83.34 19.61 82.79 19.97 82.14 20.24C81.5 20.5 80.81 20.63 80.05 20.63ZM89.83 20.63C89.1 20.63 88.47 20.5 87.93 20.26C87.39 20.02 86.98 19.67 86.68 19.22C86.39 18.76 86.24 18.23 86.24 17.63C86.24 17.05 86.37 16.54 86.63 16.09C86.88 15.63 87.28 15.25 87.82 14.94C88.35 14.64 89.03 14.42 89.85 14.29L92.96 13.78L92.96 13.44C92.96 13 92.78 12.63 92.43 12.33C92.08 12.02 91.62 11.87 91.04 11.87C90.51 11.87 90.03 12.02 89.6 12.31C89.19 12.59 88.89 12.97 88.7 13.44L86.65 12.45C86.85 11.9 87.17 11.42 87.61 11.03C88.05 10.62 88.58 10.3 89.18 10.07C89.78 9.84 90.43 9.72 91.14 9.72C92 9.72 92.75 9.88 93.4 10.2Q94.14 10.54 94.62 11.1Q94.79 11.29 94.92 11.51Q95.02 11.66 95.11 11.82Q95.48 12.54 95.48 13.44L95.48 20.39L93.1 20.39L93.1 19.3C92.96 19.45 92.82 19.58 92.68 19.7C92.3 20 91.88 20.23 91.41 20.39C90.93 20.55 90.41 20.63 89.83 20.63ZM97.8 24.24L97.8 9.95L100.16 9.95L100.16 11.18C100.49 10.77 100.9 10.45 101.39 10.2C102.01 9.88 102.72 9.72 103.53 9.72C104.51 9.72 105.4 9.96 106.19 10.45C106.99 10.94 107.61 11.59 108.08 12.41C108.55 13.23 108.79 14.15 108.79 15.17Q108.79 16.3 108.41 17.27Q108.27 17.61 108.09 17.94C107.63 18.77 107.01 19.43 106.21 19.91C105.42 20.39 104.52 20.63 103.51 20.63C102.75 20.63 102.05 20.48 101.41 20.18C100.99 19.98 100.63 19.71 100.32 19.39L100.32 24.24L97.8 24.24ZM115.66 20.63C114.58 20.63 113.64 20.38 112.83 19.9C112.03 19.41 111.4 18.75 110.95 17.92C110.51 17.09 110.28 16.16 110.28 15.15C110.28 14.1 110.51 13.18 110.95 12.37C111.41 11.55 112.03 10.9 112.82 10.43C113.61 9.96 114.49 9.72 115.47 9.72C116.28 9.72 117 9.85 117.62 10.12C118.24 10.39 118.77 10.76 119.21 11.24C119.64 11.71 119.98 12.25 120.21 12.87C120.44 13.47 120.55 14.12 120.55 14.83C120.55 15.01 120.54 15.19 120.51 15.38C120.5 15.58 120.47 15.74 120.42 15.88L112.89 15.88C112.93 16.24 113.01 16.58 113.14 16.88C113.37 17.37 113.7 17.75 114.14 18.01C114.59 18.28 115.1 18.42 115.68 18.42C116.25 18.42 116.74 18.3 117.14 18.05C117.54 17.81 117.87 17.48 118.1 17.07L120.13 18.07C119.93 18.57 119.61 19.01 119.17 19.4C118.74 19.78 118.22 20.08 117.62 20.3C117.03 20.52 116.37 20.63 115.66 20.63ZM44.03 20.39L44.03 9.95L46.39 9.95L46.39 11.42C46.62 10.91 46.94 10.53 47.33 10.3C47.86 9.99 48.48 9.84 49.21 9.84L49.83 9.84L49.83 12.06L48.92 12.06Q48.15 12.06 47.59 12.41L47.59 12.41Q47.38 12.55 47.2 12.73Q47.13 12.8 47.07 12.88Q46.54 13.51 46.54 14.58L46.54 20.39L44.03 20.39ZM54.93 20.63C54.13 20.63 53.42 20.45 52.82 20.09Q52.49 19.88 52.21 19.62Q51.76 19.19 51.46 18.59Q51 17.63 51 16.34L51 9.95L53.51 9.95L53.51 16.13C53.51 16.57 53.6 16.95 53.76 17.28Q53.88 17.49 54.04 17.67Q54.24 17.89 54.51 18.05C54.84 18.23 55.22 18.32 55.63 18.32C56.04 18.32 56.4 18.23 56.72 18.05C57.04 17.86 57.29 17.6 57.47 17.27C57.65 16.93 57.74 16.54 57.74 16.08L57.74 9.95L60.25 9.95L60.25 20.39L57.87 20.39L57.87 19.15C57.63 19.57 57.3 19.91 56.87 20.15C56.32 20.47 55.68 20.63 54.93 20.63ZM112.94 13.96L117.87 13.96Q117.83 13.61 117.71 13.29C117.54 12.83 117.26 12.47 116.87 12.2Q116.82 12.16 116.77 12.13Q116.22 11.79 115.47 11.79C114.94 11.79 114.47 11.93 114.06 12.2C113.65 12.45 113.34 12.84 113.12 13.35Q113.01 13.63 112.94 13.96ZM103.22 18.32C103.79 18.32 104.31 18.19 104.75 17.92C105.2 17.65 105.55 17.28 105.79 16.8C106.05 16.33 106.17 15.79 106.17 15.17C106.17 14.56 106.05 14.02 105.79 13.56C105.55 13.09 105.2 12.72 104.75 12.45C104.31 12.16 103.79 12.02 103.22 12.02Q102.66 12.02 102.16 12.21Q101.93 12.3 101.72 12.43C101.29 12.7 100.94 13.07 100.68 13.56C100.44 14.03 100.32 14.57 100.32 15.17C100.32 15.79 100.44 16.33 100.68 16.8C100.94 17.28 101.29 17.65 101.72 17.92Q101.93 18.05 102.16 18.13Q102.66 18.32 103.22 18.32ZM92.96 15.71L90.33 16.15C89.83 16.24 89.46 16.4 89.22 16.63C88.98 16.86 88.85 17.16 88.85 17.53C88.85 17.89 88.99 18.18 89.26 18.4C89.54 18.6 89.88 18.71 90.29 18.71C90.82 18.71 91.28 18.6 91.68 18.38C92.09 18.15 92.4 17.84 92.62 17.44C92.85 17.04 92.96 16.61 92.96 16.13L92.96 15.71Z" fill="#FAFAFA" fill-opacity="1.000000" fill-rule="evenodd"/>
</svg>
