<svg width="20.000000" height="20.000000" viewBox="0 0 20 20" fill="none" xmlns="http://www.w3.org/2000/svg" xmlns:xlink="http://www.w3.org/1999/xlink">
	<desc>
			Created with Pixso.
	</desc>
	<defs>
		<clipPath id="clip47_3418">
			<rect id="heroicons-solid/magnifying-glass" width="20.000000" height="20.000000" fill="white" fill-opacity="0"/>
		</clipPath>
	</defs>
	<g clip-path="url(#clip47_3418)">
		<path id="Vector (Stroke)" d="M8.75 3.12C5.64 3.12 3.12 5.64 3.12 8.75C3.12 11.85 5.64 14.37 8.75 14.37C10.3 14.37 11.7 13.74 12.72 12.72C13.74 11.7 14.37 10.3 14.37 8.75C14.37 5.64 11.85 3.12 8.75 3.12ZM1.87 8.75C1.87 4.95 4.95 1.87 8.75 1.87C12.54 1.87 15.62 4.95 15.62 8.75C15.62 10.42 15.02 11.95 14.03 13.14L17.94 17.05C18.18 17.3 18.18 17.69 17.94 17.94C17.69 18.18 17.3 18.18 17.05 17.94L13.14 14.03C11.95 15.02 10.42 15.62 8.75 15.62C4.95 15.62 1.87 12.54 1.87 8.75Z" fill="#637381" fill-opacity="1.000000" fill-rule="evenodd"/>
	</g>
</svg>
