<svg width="18.000000" height="18.000000" viewBox="0 0 18 18" fill="none" xmlns="http://www.w3.org/2000/svg" xmlns:xlink="http://www.w3.org/1999/xlink">
	<desc>
			Created with Pixso.
	</desc>
	<defs>
		<clipPath id="clip15_5863">
			<rect id="heroicons-solid/squares-2x2" width="18.000000" height="18.000000" fill="white" fill-opacity="0"/>
		</clipPath>
	</defs>
	<g clip-path="url(#clip15_5863)">
		<path id="Vector (Stroke)" d="M2.25 4.5C2.25 3.25 3.25 2.25 4.5 2.25L6.18 2.25C7.43 2.25 8.43 3.25 8.43 4.5L8.43 6.18C8.43 7.43 7.43 8.43 6.18 8.43L4.5 8.43C3.25 8.43 2.25 7.43 2.25 6.18L2.25 4.5ZM9.56 4.5C9.56 3.25 10.56 2.25 11.81 2.25L13.5 2.25C14.74 2.25 15.75 3.25 15.75 4.5L15.75 6.18C15.75 7.43 14.74 8.43 13.5 8.43L11.81 8.43C10.56 8.43 9.56 7.43 9.56 6.18L9.56 4.5ZM2.25 11.81C2.25 10.56 3.25 9.56 4.5 9.56L6.18 9.56C7.43 9.56 8.43 10.56 8.43 11.81L8.43 13.5C8.43 14.74 7.43 15.75 6.18 15.75L4.5 15.75C3.25 15.75 2.25 14.74 2.25 13.5L2.25 11.81ZM9.56 11.81C9.56 10.56 10.56 9.56 11.81 9.56L13.5 9.56C14.74 9.56 15.75 10.56 15.75 11.81L15.75 13.5C15.75 14.74 14.74 15.75 13.5 15.75L11.81 15.75C10.56 15.75 9.56 14.74 9.56 13.5L9.56 11.81Z" fill="#FAFAFA" fill-opacity="1.000000" fill-rule="evenodd"/>
	</g>
</svg>
