<svg width="16.000000" height="16.000000" viewBox="0 0 16 16" fill="none" xmlns="http://www.w3.org/2000/svg" xmlns:xlink="http://www.w3.org/1999/xlink">
	<desc>
			Created with Pixso.
	</desc>
	<defs>
		<clipPath id="clip33_3194">
			<rect id="heroicons-solid/x-mark" width="16.000000" height="16.000000" fill="white" fill-opacity="0"/>
		</clipPath>
	</defs>
	<g clip-path="url(#clip33_3194)">
		<path id="Vector (Stroke)" d="M3.64 3.64C3.84 3.45 4.15 3.45 4.35 3.64L8 7.29L11.64 3.64C11.84 3.45 12.15 3.45 12.35 3.64C12.54 3.84 12.54 4.15 12.35 4.35L8.7 8L12.35 11.64C12.54 11.84 12.54 12.15 12.35 12.35C12.15 12.54 11.84 12.54 11.64 12.35L8 8.7L4.35 12.35C4.15 12.54 3.84 12.54 3.64 12.35C3.45 12.15 3.45 11.84 3.64 11.64L7.29 8L3.64 4.35C3.45 4.15 3.45 3.84 3.64 3.64Z" fill="#B91C1C" fill-opacity="1.000000" fill-rule="evenodd"/>
		<path id="Vector (Stroke)" d="M3.64 3.64C3.45 3.84 3.45 4.15 3.64 4.35L7.29 8L3.64 11.64C3.45 11.84 3.45 12.15 3.64 12.35C3.84 12.54 4.15 12.54 4.35 12.35L8 8.7L11.64 12.35C11.84 12.54 12.15 12.54 12.35 12.35C12.54 12.15 12.54 11.84 12.35 11.64L8.7 8L12.35 4.35C12.54 4.15 12.54 3.84 12.35 3.64C12.15 3.45 11.84 3.45 11.64 3.64L8 7.29L4.35 3.64C4.15 3.45 3.84 3.45 3.64 3.64Z" stroke="#B91C1C" stroke-opacity="1.000000" stroke-width="0.500000" stroke-linejoin="round"/>
	</g>
</svg>
